Coordinates
version=1
nRows=24
nColumns=22
inDegrees=yes

Units are S.I. units (second, meters, Newtons, ...)
If the header above contains a line with 'inDegrees', this indicates whether rotational values are in degrees (yes) or radians (no).

endheader
time	pelvis_tilt	pelvis_list	pelvis_rotation	pelvis_tx	pelvis_ty	pelvis_tz	hip_flexion_r	hip_adduction_r	hip_rotation_r	knee_angle_r	ankle_angle_r	subtalar_angle_r	hip_flexion_l	hip_adduction_l	hip_rotation_l	knee_angle_l	ankle_angle_l	subtalar_angle_l	lumbar_extension	lumbar_bending	lumbar_rotation
      1.87000000	     -6.50789773	     -1.81854168	    -30.49863339	     -0.86006676	      0.87517780	     -0.37874708	     33.19282922	     -1.67991303	      0.89526353	    -32.97119636	      5.64110035	      6.00946262	     -5.15503518	     -2.20282271	      3.69979771	     -6.98963782	     20.84489753	     -1.03685018	     -1.92268568	      3.17189798	      6.13811875
      1.88000000	     -6.43030221	     -1.78677730	    -30.45460823	     -0.85651367	      0.87420776	     -0.37635416	     32.96980449	     -1.74556637	      0.87701665	    -30.88568454	      5.33836536	      6.18756753	     -5.52224373	     -2.15468295	      3.67282656	     -6.98471509	     21.09930233	     -0.90787009	     -1.97394734	      3.11547606	      6.01946060
      1.89000000	     -6.36113946	     -1.74033774	    -30.41836572	     -0.85287922	      0.87316545	     -0.37382561	     32.75183296	     -1.80927558	      0.85221463	    -28.79309369	      5.05823206	      6.27883545	     -5.88494352	     -2.09995244	      3.64454931	     -6.98152098	     21.35612385	     -0.80410331	     -2.00466763	      3.04691166	      5.90406063
      1.90000000	     -6.29849678	     -1.69304864	    -30.39291756	     -0.84915680	      0.87206926	     -0.37116370	     32.53039401	     -1.85922363	      0.81504647	    -26.70400455	      4.82000344	      6.30771040	     -6.25276498	     -2.05041773	      3.60996770	     -6.98035744	     21.62415368	     -0.72308546	     -2.02485046	      2.98380224	      5.79934089
      1.91000000	     -6.24164203	     -1.63997941	    -30.38306367	     -0.84537721	      0.87091874	     -0.36837452	     32.31673126	     -1.89650042	      0.77092391	    -24.63506834	      4.61894931	      6.29369773	     -6.61829598	     -2.00016437	      3.57002188	     -6.98941755	     21.90463584	     -0.65546822	     -2.03694014	      2.91884643	      5.70831086
      1.92000000	     -6.20275585	     -1.57758039	    -30.39138089	     -0.84156393	      0.86970137	     -0.36546196	     32.13093568	     -1.91535651	      0.71958700	    -22.60247077	      4.43677116	      6.25520092	     -6.96099260	     -1.95261157	      3.52245735	     -7.01969055	     22.20078843	     -0.60339458	     -2.02915358	      2.85623194	      5.63623229
      1.93000000	     -6.17910824	     -1.50801367	    -30.41688890	     -0.83773004	      0.86842444	     -0.36243009	     31.97516408	     -1.91484914	      0.66294847	    -20.62258077	      4.26763803	      6.20555367	     -7.28178302	     -1.90879449	      3.46754128	     -7.07414147	     22.51383938	     -0.55809415	     -2.00726281	      2.79500645	      5.57897291
      1.94000000	     -6.17430753	     -1.43559287	    -30.45955796	     -0.83386858	      0.86709022	     -0.35928286	     31.85374060	     -1.89045381	      0.59255803	    -18.71022559	      4.10018037	      6.15638246	     -7.57887843	     -1.87370337	      3.40189468	     -7.15508410	     22.84486261	     -0.51620567	     -1.96986092	      2.74527255	      5.53971859
      1.95000000	     -6.19086357	     -1.35633590	    -30.51297923	     -0.82998837	      0.86569641	     -0.35602865	     31.77228914	     -1.84548419	      0.51786582	    -16.87606843	      3.94269587	      6.11917870	     -7.84168359	     -1.84599660	      3.33372036	     -7.27088962	     23.18937727	     -0.47732397	     -1.91428131	      2.70178953	      5.51257112
      1.96000000	     -6.22384379	     -1.27868468	    -30.57308934	     -0.82608152	      0.86425960	     -0.35266210	     31.72294827	     -1.77749094	      0.42971938	    -15.13359550	      3.79787170	      6.09563955	     -8.08356219	     -1.83290546	      3.25874853	     -7.41322532	     23.54810467	     -0.43449442	     -1.84957009	      2.66922805	      5.48757181
      1.97000000	     -6.27636882	     -1.15907574	    -30.63409019	     -0.82216764	      0.86274219	     -0.34923658	     31.74636442	     -1.72584010	      0.34536335	    -13.50740492	      3.64602741	      6.09418440	     -8.26717641	     -1.79217985	      3.20141235	     -7.59450458	     23.91235130	     -0.41288281	     -1.75152533	      2.61103589	      5.45679177
      1.98000000	     -6.34961683	     -1.07477269	    -30.69515608	     -0.81818872	      0.86122024	     -0.34567105	     31.77429963	     -1.62366080	      0.21125079	    -11.97742196	      3.54982861	      6.10104800	     -8.45130337	     -1.80330319	      3.12823833	     -7.79530151	     24.27940411	     -0.38022030	     -1.65540695	      2.59817637	      5.43957642
      1.99000000	     -6.43586822	     -0.98651593	    -30.74863754	     -0.81416173	      0.85966780	     -0.34203476	     31.83863259	     -1.51442184	      0.04241205	    -10.57360862	      3.48738939	      6.11018538	     -8.61809795	     -1.82244789	      3.06603834	     -8.01174839	     24.63419520	     -0.33577535	     -1.55287667	      2.59356913	      5.41608126
      2.00000000	     -6.53440445	     -0.87957552	    -30.78982770	     -0.81009351	      0.85808245	     -0.33831790	     31.94969751	     -1.41139401	     -0.16126544	     -9.30781071	      3.45020386	      6.11539328	     -8.76255851	     -1.83731745	      3.01945315	     -8.23760339	     24.97552758	     -0.29123347	     -1.43584946	      2.58031151	      5.37772758
      2.01000000	     -6.65053826	     -0.77526234	    -30.81289359	     -0.80596561	      0.85647921	     -0.33452605	     32.09493519	     -1.29938119	     -0.42699664	     -8.17981129	      3.43208651	      6.10788836	     -8.89277344	     -1.87192973	      2.98534396	     -8.47182302	     25.29713646	     -0.23132327	     -1.31091278	      2.58118269	      5.33162197
      2.02000000	     -6.77093406	     -0.65674998	    -30.81776789	     -0.80176550	      0.85485796	     -0.33067870	     32.27576007	     -1.20153028	     -0.73975332	     -7.20022141	      3.41823885	      6.08188340	     -9.02072010	     -1.90082292	      2.96821901	     -8.69678074	     25.59912750	     -0.16811648	     -1.18246366	      2.57840892	      5.26237736
      2.03000000	     -6.89564077	     -0.53905690	    -30.80068197	     -0.79748883	      0.85322824	     -0.32674218	     32.47887149	     -1.10578837	     -1.10361206	     -6.36954032	      3.42266146	      6.03107047	     -9.16067536	     -1.94239750	      2.96650848	     -8.90314525	     25.87232931	     -0.09383588	     -1.05787714	      2.57864060	      5.17627835
      2.04000000	     -7.01528427	     -0.42458424	    -30.76532575	     -0.79311192	      0.85160326	     -0.32270968	     32.68914795	     -1.01611848	     -1.49975197	     -5.68396862	      3.44737426	      5.95668783	     -9.33140265	     -1.99343586	      2.97799592	     -9.07835470	     26.11194836	     -0.01255678	     -0.94589554	      2.58205065	      5.07315062
      2.05000000	     -7.12698603	     -0.31990108	    -30.71155480	     -0.78861661	      0.84998899	     -0.31857393	     32.89529885	     -0.92950178	     -1.92471129	     -5.13922134	      3.50061912	      5.84814607	     -9.54371303	     -2.05834139	      2.99847626	     -9.21592561	     26.31129740	      0.08891724	     -0.85208855	      2.59359998	      4.95627702
      2.06000000	     -7.23165056	     -0.21424572	    -30.64539713	     -0.78397857	      0.84837229	     -0.31431420	     33.08455997	     -0.85261211	     -2.31474699	     -4.70439251	      3.61258005	      5.73212996	     -9.79734201	     -2.12679910	      3.03289484	     -9.30947750	     26.46333560	      0.18685309	     -0.76438117	      2.60422680	      4.82914242
      2.07000000	     -7.32379546	     -0.11512712	    -30.54499614	     -0.77920104	      0.84677880	     -0.30995677	     33.25727858	     -0.79288051	     -2.73642511	     -4.39871238	      3.72242085	      5.56601807	    -10.08648329	     -2.20857719	      3.07922363	     -9.37747651	     26.57415412	      0.31806791	     -0.69678513	      2.61407901	      4.66722661
      2.08000000	     -7.39936849	     -0.00658982	    -30.42116520	     -0.77429258	      0.84519746	     -0.30549964	     33.39485601	     -0.76001031	     -3.11617675	     -4.17243739	      3.82346307	      5.28858581	    -10.39842508	     -2.28337466	      3.12817708	     -9.43643308	     26.65196079	      0.52442905	     -0.64381928	      2.60831736	      4.49402065
      2.09000000	     -7.48946284	      0.12322692	    -30.26018751	     -0.76921830	      0.84357946	     -0.30093283	     33.51738854	     -0.75707764	     -3.43323711	     -4.01098871	      3.97907902	      5.03858333	    -10.70688683	     -2.36032884	      3.21482141	     -9.46913574	     26.67925886	      0.69946890	     -0.55875963	      2.59207017	      4.27683520
      2.10000000	     -7.58435932	      0.27220086	    -30.06468727	     -0.76398385	      0.84194896	     -0.29627349	     33.60941512	     -0.78710805	     -3.70798992	     -3.90105692	      4.12301868	      4.80504936	    -11.00921343	     -2.43470862	      3.34139224	     -9.49964322	     26.66204803	      0.85644729	     -0.45562619	      2.56667302	      4.03150383
